<svg id="Layer_1" data-name="Layer 1" xmlns="http://www.w3.org/2000/svg" viewBox="0 0 864 106.112">
  <g>
    <path id="fullLogo" d="M97.9558,42.994V11.9189H33.5866L0,73.4942H33.2988v31.075H97.668L131.2545,42.994ZM64.3765,104.5548V73.4914H33.3008L66.8781,11.9333V42.9967H97.9537Z" style="fill: #55cb64"/>
    <path id="fullLogo-2" data-name="fullLogo" d="M243.2878,102.8661v1.7012H206.2189v-1.7012c4.6339-3.55,5.5613-5.7149,5.5613-8.03,0-1.8548-.62-3.86-1.7011-7.106l-4.9412-14.3628H171.1554l-3.2429,9.4216a23.4146,23.4146,0,0,0-1.6983,7.5668c0,4.0167,2.6257,6.1786,11.43,12.5108v1.7012H150.15v-1.7012c6.6423-7.4132,8.6506-10.81,11.8935-20.0776l24.2509-70.8949H207.3l25.7955,74.9116C235.5645,94.0648,237.2656,96.9976,243.2878,102.8661ZM203.5932,68.5794l-15.4466-45.566L172.7,68.5794Z" style="fill: #1a1a1a"/>
    <path id="fullLogo-3" data-name="fullLogo" d="M302.5412,37.379v19.15l-1.2345.4637c-12.9746-6.1787-17.3014-7.7233-21.008-7.7233a13.4083,13.4083,0,0,0-3.86.62V91.1291c0,5.5613.7709,6.4858,7.26,11.737v1.7012H248.6347v-1.7012c5.7149-4.631,6.7959-6.3322,6.7959-11.12V50.8143c0-5.2512-.7709-6.6394-7.1031-12.818V36.298h27.4937l.4608,11.7371c5.4078-9.5751,12.2037-13.2817,18.0722-13.2817A13.6325,13.6325,0,0,1,302.5412,37.379Z" style="fill: #1a1a1a"/>
    <path id="fullLogo-4" data-name="fullLogo" d="M362.9655,50.1971c-13.2818-8.8043-17.1448-10.6562-21.1586-10.6562-8.9608,0-12.3573,7.8769-12.3573,27.3373,0,19.1532,3.86,29.192,17.6085,29.192a23.4249,23.4249,0,0,0,18.2258-8.1841l1.2346.9245c-4.3239,10.3489-12.5109,17.3014-27.6474,17.3014-22.3961,0-32.5914-14.9829-32.5914-34.6,0-23.0134,14.212-36.7588,37.0718-36.7588a126.6467,126.6467,0,0,1,20.695,2.3155l.1565,12.821Z" style="fill: #1a1a1a"/>
    <path id="fullLogo-5" data-name="fullLogo" d="M445.0613,102.8661v1.7012H410.308v-1.7012c5.7149-4.631,6.7959-6.3322,6.7959-11.12V55.4483c0-6.6394-2.472-11.2734-10.3489-11.2734a16.5994,16.5994,0,0,0-11.12,4.3239V91.7463c0,4.7876.9273,6.4888,6.0221,11.12v1.7012h-33.826v-1.7012c5.715-4.631,6.7959-6.3322,6.7959-11.12V15.4437c0-5.5585-.9244-7.26-7.5668-13.7454V0h28.5748V45.0994a25.6944,25.6944,0,0,1,21.1615-10.346c13.7454,0,21.4687,7.72,21.4687,21.3151V91.7463C438.2654,96.5339,439.3464,98.2351,445.0613,102.8661Z" style="fill: #1a1a1a"/>
    <path id="fullLogo-6" data-name="fullLogo" d="M484.82,102.8661v1.7012h-34.6v-1.7012c5.7149-4.631,6.7959-6.3322,6.7959-11.12V50.8143c0-5.2512-.7709-6.6394-7.1031-12.818V36.298h28.111V91.7463C478.0237,96.5339,479.1047,98.2351,484.82,102.8661ZM454.8538,12.9746c0-6.3323,5.2513-11.1227,12.2037-11.1227,6.95,0,12.2008,4.79,12.2008,11.1227s-5.2513,11.12-12.2008,11.12C460.1051,24.0944,454.8538,19.3068,454.8538,12.9746Z" style="fill: #1a1a1a"/>
    <path id="fullLogo-7" data-name="fullLogo" d="M485.0341,36.298h9.1144l1.0809-18.846h19.9241V36.298h16.6811v5.0948H515.1535V87.73c0,6.3351,2.9357,10.0417,9.1143,10.0417a12.7251,12.7251,0,0,0,7.7233-2.472l.9245,1.0809c-2.4691,5.5614-8.4942,9.7317-18.69,9.7317-13.5918,0-20.2341-7.57-20.2341-19.1532V41.3928h-8.9579Z" style="fill: #1a1a1a"/>
    <path id="fullLogo-8" data-name="fullLogo" d="M596.7857,88.04l1.2374.7709c-4.48,10.9691-14.212,17.3014-29.5021,17.3014-24.2508,0-35.6807-15.7567-35.6807-35.2171,0-20.3878,12.6673-36.1415,35.0634-36.1415,20.0777,0,30.4266,12.5108,30.4266,28.7283a26.3667,26.3667,0,0,1-.6173,6.4858l-42.32.1565v2.162c0,15.7537,5.8685,24.4044,20.6949,24.4044C585.5123,96.69,592.1517,93.1374,596.7857,88.04ZM555.3929,58.6941V64.87h21.9324V56.993c0-10.9662-1.6983-17.4521-10.1953-17.4521C558.1721,39.5409,555.3929,46.8005,555.3929,58.6941Z" style="fill: #1a1a1a"/>
    <path id="fullLogo-9" data-name="fullLogo" d="M660.9629,50.1971c-13.2818-8.8043-17.1448-10.6562-21.1586-10.6562-8.9608,0-12.3573,7.8769-12.3573,27.3373,0,19.1532,3.86,29.192,17.6085,29.192a23.4249,23.4249,0,0,0,18.2258-8.1841l1.2346.9245C660.192,99.16,652.005,106.112,636.8685,106.112c-22.3961,0-32.5914-14.9829-32.5914-34.6,0-23.0134,14.212-36.7588,37.0718-36.7588a126.6467,126.6467,0,0,1,20.695,2.3155L662.2,49.89Z" style="fill: #1a1a1a"/>
    <path id="fullLogo-10" data-name="fullLogo" d="M667.2024,36.298h9.1143l1.081-18.846h19.9241V36.298h16.6811v5.0948H697.3218V87.73c0,6.3351,2.9357,10.0417,9.1143,10.0417a12.7253,12.7253,0,0,0,7.7233-2.472l.9245,1.0809c-2.4691,5.5614-8.4942,9.7317-18.6895,9.7317-13.5918,0-20.2342-7.57-20.2342-19.1532V41.3928h-8.9578Z" style="fill: #1a1a1a"/>
    <path id="fullLogo-11" data-name="fullLogo" d="M721.2046,93.9083a11.74,11.74,0,1,1,11.7371,11.5864A11.3226,11.3226,0,0,1,721.2046,93.9083Z" style="fill: #1a1a1a"/>
    <path id="fullLogo-12" data-name="fullLogo" d="M787.7756,102.8661v1.7012h-34.6v-1.7012c5.715-4.631,6.7959-6.3322,6.7959-11.12V50.8143c0-5.2512-.7708-6.6394-7.1031-12.818V36.298H780.98V91.7463C780.98,96.5339,782.0607,98.2351,787.7756,102.8661ZM757.81,12.9746c0-6.3323,5.2513-11.1227,12.2037-11.1227,6.9495,0,12.2007,4.79,12.2007,11.1227s-5.2512,11.12-12.2007,11.12C763.0611,24.0944,757.81,19.3068,757.81,12.9746Z" style="fill: #1a1a1a"/>
    <path id="fullLogo-13" data-name="fullLogo" d="M791.25,70.7413c0-20.3877,14.212-35.9879,36.6081-35.9879C850.0981,34.7534,864,49.89,864,70.124c0,20.3878-13.2817,35.988-36.6052,35.988C804.535,106.112,791.25,90.9755,791.25,70.7413Zm49.1189-.1565c0-21.7759-1.5446-31.0439-12.8209-31.0439-11.12,0-12.6645,9.268-12.6645,30.7367,0,21.7788,1.5447,30.89,12.8181,30.89C838.9783,101.1679,840.3693,91.9,840.3693,70.5848Z" style="fill: #1a1a1a"/>
  </g>
</svg>
